<?xml version="1.0" encoding="UTF-8"?>
<svg id="Layer_1" data-name="Layer 1" xmlns="http://www.w3.org/2000/svg" xmlns:xlink="http://www.w3.org/1999/xlink" viewBox="0 0 736.6 216.57">
  <defs>
    <style>
      .cls-1 {
        fill: url(#linear-gradient);
      }

      .cls-2 {
        fill: #2b404a;
      }
    </style>
    <linearGradient id="linear-gradient" x1="74.22" y1="2347.28" x2="221.39" y2="2397.58" gradientTransform="translate(0 2464.96) scale(1 -1)" gradientUnits="userSpaceOnUse">
      <stop offset="0" stop-color="#efb245"/>
      <stop offset="1" stop-color="#f0a204"/>
    </linearGradient>
  </defs>
  <path class="cls-1" d="M183.56,91.04h.03H47.77l18.5,35.07.16.32h117.13c9.84,0,17.84-7.94,17.84-17.68s-8.02-17.7-17.84-17.7h0ZM183.49,46.47H24.3l.16.32,18.5,35.07h140.53c14.79,0,26.81,11.88,26.81,26.54s-12.04,26.54-26.81,26.54h-112.5l.16.29,18.53,35.07h93.82c34.51,0,62.56-27.79,62.56-61.93s-28.05-61.93-62.56-61.93v.03h0ZM184.12,2.25H.93l.16.32,18.5,35.07h164.5c39.01,0,70.77,31.76,70.77,70.77s-31.76,70.77-70.77,70.77h-89.79l.16.32,18.5,35.07h71.11c58.54,0,106.15-47.64,106.15-106.15S242.61,2.24,184.07,2.24l.05.03v-.02h0Z"/>
  <path class="cls-2" d="M328.17,102.75h28.18c41.56,0,65.76,23.72,65.76,56.05s-24.68,55.41-65.76,55.41h-28.18v-111.46ZM349.67,108.96v99.04h7.32c29.46,0,42.04-18.79,42.04-49.36,0-28.02-13.22-49.68-42.04-49.68h-7.32Z"/>
  <path class="cls-2" d="M431.35,102.75h34.23c26.27,0,44.42,9.71,44.42,31.21,0,15.76-10.51,25.16-26.75,28.82l34.39,51.43h-24.68l-32.48-49.68h-7.64v49.68h-21.5v-111.46s.01,0,.01,0ZM452.85,108.96v49.2h8.92c16.72,0,26.11-7.8,26.11-23.88s-9.39-25.32-26.11-25.32h-8.92Z"/>
  <path class="cls-2" d="M526.87,102.75h21.5v111.46h-21.5s0-111.46,0-111.46Z"/>
  <path class="cls-2" d="M606.02,202.75l28.66-99.99h7.8l-32.16,111.46h-22.77l-29.93-111.46h21.97l26.43,99.99h0Z"/>
  <path class="cls-2" d="M651.72,102.75h67.35v6.21h-46.18v45.06h38.53v6.21h-38.53v47.77h47.77v6.21h-68.94v-111.46h0Z"/>
  <path class="cls-2" d="M374.92,58.39h-33.4l-8.78,24.73h-4.51L357.35,2.22h7.98l28.31,80.9h-10.17s-8.55-24.73-8.55-24.73ZM342.91,54.46h30.63l-15.02-43.69-15.6,43.69h-.01Z"/>
  <path class="cls-2" d="M429.29,35.97c0-4.05-1.27-5.89-3.35-5.89-4.74,0-12.71,7.63-13.06,29.12v23.92h-9.01V27.88h9.01v15.6c2.31-9.82,7.4-16.87,15.14-16.87,5.55,0,9.59,3,9.59,9.25"/>
  <path class="cls-2" d="M492.27,52.61v2.77h-38.72v.12c0,17.1,6.93,24.96,17.91,24.96,7.63,0,13.75-3.35,17.68-7.17l1.96,1.62c-3.93,4.28-9.71,9.36-20.92,9.36-14.68,0-25.89-7.97-25.89-28.78s10.29-28.89,24.85-28.89,23.11,8.21,23.11,26h.02ZM453.55,52.5h29.47c0-13.06-4.16-23-13.87-23s-14.91,8.09-15.6,23Z"/>
  <path class="cls-2" d="M541.32,83.57l-1.96-9.71c-3,6.24-8.78,10.4-18.72,10.4-11.79,0-18.14-5.89-18.14-15.14,0-10.05,7.51-16.87,25.54-16.87h11.33v-3.01c0-15.95-8.32-19.3-15.6-19.3s-12.25,3.35-15.83,6.93l-1.73-1.85c4.39-4.51,10.4-8.44,19.53-8.44,11.9,0,22.65,6.13,22.65,23.35v33.63h-7.07ZM539.35,55.14h-11.33c-10.05,0-16.18,4.62-16.18,13.98,0,8.67,5.43,11.56,10.98,11.56,6.47,0,16.53-3.93,16.53-18.72v-6.82h0Z"/>
</svg>